<svg width="256" height="256" viewBox="0 0 256 256" fill="none" xmlns="http://www.w3.org/2000/svg">
<g clip-path="url(#clip0_550_75)">
<path d="M0 40C0 17.9086 17.9086 0 40 0L216 0C238.091 0 256 17.9086 256 40V216C256 238.091 238.091 256 216 256H0L0 40Z" fill="#E2E0F0"/>
<rect width="256" height="256" rx="40" fill="#0D0A29"/>
<rect x="44" y="44" width="168" height="168" rx="84" fill="#0BDAB4"/>
<rect x="-0.445801" y="-0.439453" width="168" height="80" rx="40" fill="#F5A83D"/>
<rect x="88" y="176" width="168" height="80" rx="40" fill="#281F7A"/>
<rect y="176" width="80" height="80" rx="40" fill="#E2E0F0"/>
</g>
<defs>
<clipPath id="clip0_550_75">
<path d="M0 40C0 17.9086 17.9086 0 40 0L216 0C238.091 0 256 17.9086 256 40V216C256 238.091 238.091 256 216 256H0L0 40Z" fill="white"/>
</clipPath>
</defs>
</svg>
